<svg width="1200" height="360" viewBox="0 0 1200 360" fill="none" xmlns="http://www.w3.org/2000/svg">
<defs>
  <linearGradient id="bg" x1="0" y1="0" x2="1200" y2="360" gradientUnits="userSpaceOnUse">
    <stop stop-color="#0B1020"/>
    <stop offset="0.55" stop-color="#111827"/>
    <stop offset="1" stop-color="#172554"/>
  </linearGradient>
  <linearGradient id="accent" x1="120" y1="40" x2="1050" y2="300" gradientUnits="userSpaceOnUse">
    <stop stop-color="#60A5FA"/>
    <stop offset="0.5" stop-color="#A78BFA"/>
    <stop offset="1" stop-color="#22D3EE"/>
  </linearGradient>
  <filter id="blur"><feGaussianBlur stdDeviation="55"/></filter>
</defs>
<rect width="1200" height="360" rx="28" fill="url(#bg)"/>
<circle cx="1010" cy="45" r="150" fill="#2563EB" opacity=".24" filter="url(#blur)"/>
<circle cx="160" cy="330" r="130" fill="#7C3AED" opacity=".20" filter="url(#blur)"/>
<path d="M0 285C190 215 315 360 510 282C700 206 800 260 1200 120" stroke="url(#accent)" stroke-opacity=".18" stroke-width="2"/>
<path d="M0 315C210 245 330 390 535 300C735 212 865 270 1200 155" stroke="url(#accent)" stroke-opacity=".10" stroke-width="1.5"/>
<text x="72" y="112" fill="#94A3B8" font-family="Arial, Helvetica, sans-serif" font-size="18" letter-spacing="4">SOFTWARE ENGINEER • FULL-STACK • AI</text>
<text x="72" y="176" fill="white" font-family="Arial, Helvetica, sans-serif" font-size="52" font-weight="700">Farhod Soyilov</text>
<text x="74" y="218" fill="#CBD5E1" font-family="Arial, Helvetica, sans-serif" font-size="20">Building useful products where engineering, AI and design meet.</text>
<rect x="74" y="258" width="142" height="38" rx="19" fill="#FFFFFF" fill-opacity=".08" stroke="#FFFFFF" stroke-opacity=".12"/>
<text x="145" y="283" text-anchor="middle" fill="#E2E8F0" font-family="Arial, Helvetica, sans-serif" font-size="14">farkhod.dev</text>
<rect x="228" y="258" width="138" height="38" rx="19" fill="#FFFFFF" fill-opacity=".08" stroke="#FFFFFF" stroke-opacity=".12"/>
<text x="297" y="283" text-anchor="middle" fill="#E2E8F0" font-family="Arial, Helvetica, sans-serif" font-size="14">Open to ideas</text>
<circle cx="1070" cy="220" r="54" fill="#FFFFFF" fill-opacity=".05" stroke="#FFFFFF" stroke-opacity=".12"/>
<text x="1070" y="238" text-anchor="middle" fill="white" font-family="Arial, Helvetica, sans-serif" font-size="48" font-weight="700">F</text>
</svg>